<svg width="72" height="72" viewBox="0 0 72 72" fill="none" xmlns="http://www.w3.org/2000/svg">
<path d="M10.789 12.4749C10.789 12.0269 10.967 11.5972 11.2838 11.2804C11.6006 10.9636 12.0303 10.7856 12.4783 10.7856H13.9582C16.4145 10.7856 17.8268 12.3837 18.6445 13.9784C19.202 15.0697 19.604 16.4009 19.9385 17.5564H54.7222C55.2443 17.5565 55.7592 17.6777 56.2266 17.9103C56.694 18.1429 57.1011 18.4806 57.416 18.897C57.7309 19.3134 57.945 19.7971 58.0416 20.3101C58.1382 20.8232 58.1145 21.3516 57.9725 21.854L52.918 39.6763C52.5159 41.0902 51.6637 42.3345 50.4906 43.2205C49.3175 44.1064 47.8874 44.5856 46.4174 44.5854H29.257C27.7746 44.5859 26.3333 44.099 25.1549 43.1997C23.9766 42.3004 23.1267 41.0386 22.7361 39.6087L20.5669 31.652C20.5545 31.6164 20.5432 31.5803 20.5332 31.5439L17.0497 19.7288L16.7119 18.5902C16.374 17.4212 16.0767 16.3874 15.6307 15.5191C15.0935 14.4717 14.6002 14.1676 13.9548 14.1676H12.475C12.0269 14.1676 11.5972 13.9896 11.2804 13.6728C10.9636 13.356 10.7856 12.9263 10.7856 12.4783L10.789 12.4749ZM23.7902 30.6317L25.9965 38.7269C26.1921 39.4415 26.6172 40.072 27.2064 40.5213C27.7955 40.9707 28.516 41.2139 29.257 41.2135H46.4207C47.1554 41.2128 47.8698 40.9726 48.4557 40.5294C49.0416 40.0861 49.4671 39.464 49.6677 38.7573L54.7222 20.935H20.9352L23.7902 30.6283V30.6317Z" fill="white"/>
<path d="M34.45 53.032C34.45 54.3761 33.9161 55.6651 32.9656 56.6155C32.0152 57.566 30.7261 58.0999 29.382 58.0999C28.0379 58.0999 26.7488 57.566 25.7983 56.6155C24.8479 55.6651 24.3139 54.3761 24.3139 53.032C24.3139 51.6879 24.8479 50.3988 25.7983 49.4484C26.7488 48.498 28.0379 47.964 29.382 47.964C30.7261 47.964 32.0152 48.498 32.9656 49.4484C33.9161 50.3988 34.45 51.6879 34.45 53.032ZM31.0713 53.032C31.0713 52.5839 30.8933 52.1542 30.5765 51.8374C30.2597 51.5206 29.83 51.3426 29.382 51.3426C28.9339 51.3426 28.5042 51.5206 28.1874 51.8374C27.8706 52.1542 27.6926 52.5839 27.6926 53.032C27.6926 53.48 27.8706 53.9097 28.1874 54.2265C28.5042 54.5433 28.9339 54.7213 29.382 54.7213C29.83 54.7213 30.2597 54.5433 30.5765 54.2265C30.8933 53.9097 31.0713 53.48 31.0713 53.032Z" fill="white"/>
<path d="M51.3435 53.032C51.3435 54.3761 50.8096 55.6651 49.8591 56.6155C48.9087 57.566 47.6196 58.0999 46.2755 58.0999C44.9313 58.0999 43.6423 57.566 42.6918 56.6155C41.7414 55.6651 41.2074 54.3761 41.2074 53.032C41.2074 51.6879 41.7414 50.3988 42.6918 49.4484C43.6423 48.498 44.9313 47.964 46.2755 47.964C47.6196 47.964 48.9087 48.498 49.8591 49.4484C50.8096 50.3988 51.3435 51.6879 51.3435 53.032ZM47.9648 53.032C47.9648 52.5839 47.7868 52.1542 47.47 51.8374C47.1532 51.5206 46.7235 51.3426 46.2755 51.3426C45.8274 51.3426 45.3977 51.5206 45.0809 51.8374C44.7641 52.1542 44.5861 52.5839 44.5861 53.032C44.5861 53.48 44.7641 53.9097 45.0809 54.2265C45.3977 54.5433 45.8274 54.7213 46.2755 54.7213C46.7235 54.7213 47.1532 54.5433 47.47 54.2265C47.7868 53.9097 47.9648 53.48 47.9648 53.032Z" fill="white"/>
</svg>
