<svg width="65" height="65" viewBox="0 0 65 65" fill="none" xmlns="http://www.w3.org/2000/svg">
<path fill-rule="evenodd" clip-rule="evenodd" d="M20.2177 2.88712C23.3946 2.74087 24.4075 2.70837 32.5 2.70837C40.5925 2.70837 41.6054 2.74358 44.7796 2.88712C47.9538 3.03067 50.1204 3.53712 52.0163 4.27108C54.0015 5.02129 55.8025 6.194 57.2921 7.71067C58.8088 9.19754 59.9788 10.9959 60.7263 12.9838C61.4629 14.8796 61.9667 17.0463 62.1129 20.215C62.2592 23.3973 62.2917 24.4102 62.2917 32.5C62.2917 40.5925 62.2565 41.6055 62.1129 44.7823C61.9694 47.9511 61.4629 50.1177 60.7263 52.0136C59.9787 54.0018 58.8068 55.8031 57.2921 57.2921C55.8025 58.8088 54.0015 59.9788 52.0163 60.7263C50.1204 61.463 47.9538 61.9667 44.785 62.113C41.6054 62.2592 40.5925 62.2917 32.5 62.2917C24.4075 62.2917 23.3946 62.2565 20.2177 62.113C17.049 61.9694 14.8823 61.463 12.9865 60.7263C10.9983 59.9787 9.19702 58.8068 7.70793 57.2921C6.19229 55.8044 5.0194 54.0039 4.27105 52.0163C3.53709 50.1205 3.03334 47.9538 2.88709 44.785C2.74084 41.6027 2.70834 40.5898 2.70834 32.5C2.70834 24.4075 2.74355 23.3946 2.88709 20.2205C3.03064 17.0463 3.53709 14.8796 4.27105 12.9838C5.02051 10.9961 6.19429 9.19568 7.71063 7.70796C9.19762 6.19265 10.9971 5.01978 12.9838 4.27108C14.8796 3.53712 17.0463 3.03337 20.215 2.88712H20.2177ZM44.5386 8.24962C41.3969 8.10608 40.4544 8.07629 32.5 8.07629C24.5456 8.07629 23.6031 8.10608 20.4615 8.24962C17.5554 8.38233 15.9792 8.86712 14.9283 9.27608C13.539 9.81775 12.545 10.4596 11.5023 11.5023C10.5139 12.4639 9.75321 13.6346 9.27605 14.9284C8.86709 15.9792 8.3823 17.5555 8.24959 20.4615C8.10605 23.6032 8.07626 24.5457 8.07626 32.5C8.07626 40.4544 8.10605 41.3969 8.24959 44.5386C8.3823 47.4446 8.86709 49.0209 9.27605 50.0717C9.75272 51.3636 10.5138 52.5363 11.5023 53.4977C12.4638 54.4863 13.6365 55.2473 14.9283 55.724C15.9792 56.133 17.5554 56.6177 20.4615 56.7505C23.6031 56.894 24.5429 56.9238 32.5 56.9238C40.4571 56.9238 41.3969 56.894 44.5386 56.7505C47.4446 56.6177 49.0208 56.133 50.0717 55.724C51.4611 55.1823 52.455 54.5405 53.4977 53.4977C54.4863 52.5363 55.2473 51.3636 55.724 50.0717C56.1329 49.0209 56.6177 47.4446 56.7504 44.5386C56.894 41.3969 56.9238 40.4544 56.9238 32.5C56.9238 24.5457 56.894 23.6032 56.7504 20.4615C56.6177 17.5555 56.1329 15.9792 55.724 14.9284C55.1823 13.539 54.5404 12.545 53.4977 11.5023C52.5361 10.514 51.3655 9.75332 50.0717 9.27608C49.0208 8.86712 47.4446 8.38233 44.5386 8.24962ZM28.6948 41.684C30.8199 42.5686 33.1862 42.688 35.3896 42.0218C37.593 41.3556 39.4967 39.945 40.7756 38.0311C42.0545 36.1172 42.6293 33.8186 42.4018 31.528C42.1743 29.2374 41.1586 27.0968 39.5281 25.4719C38.4888 24.4332 37.232 23.6379 35.8484 23.1431C34.4648 22.6484 32.9887 22.4666 31.5264 22.6109C30.064 22.7551 28.6519 23.2218 27.3916 23.9773C26.1312 24.7328 25.0541 25.7583 24.2377 26.9801C23.4213 28.2018 22.8859 29.5894 22.6702 31.0429C22.4544 32.4963 22.5635 33.9796 22.9898 35.3858C23.4161 36.792 24.1488 38.0863 25.1353 39.1753C26.1218 40.2644 27.3375 41.1212 28.6948 41.684ZM21.6721 21.6721C23.094 20.2502 24.7821 19.1222 26.64 18.3527C28.4978 17.5831 30.4891 17.1871 32.5 17.1871C34.5109 17.1871 36.5022 17.5831 38.36 18.3527C40.2179 19.1222 41.906 20.2502 43.3279 21.6721C44.7499 23.0941 45.8778 24.7822 46.6474 26.64C47.4169 28.4979 47.813 30.4891 47.813 32.5C47.813 34.511 47.4169 36.5022 46.6474 38.3601C45.8778 40.2179 44.7499 41.906 43.3279 43.328C40.4562 46.1997 36.5613 47.813 32.5 47.813C28.4388 47.813 24.5438 46.1997 21.6721 43.328C18.8004 40.4562 17.187 36.5613 17.187 32.5C17.187 28.4388 18.8004 24.5439 21.6721 21.6721ZM51.2092 19.4675C51.5615 19.1351 51.8436 18.7354 52.0387 18.2921C52.2339 17.8487 52.338 17.3707 52.3451 16.8863C52.3522 16.402 52.262 15.9211 52.0799 15.4722C51.8978 15.0234 51.6274 14.6156 51.2849 14.2731C50.9424 13.9305 50.5346 13.6602 50.0857 13.4781C49.6369 13.296 49.156 13.2058 48.6717 13.2129C48.1873 13.2199 47.7093 13.3241 47.2659 13.5192C46.8225 13.7143 46.4228 13.9964 46.0904 14.3488C45.444 15.0341 45.0901 15.9443 45.1038 16.8863C45.1175 17.8283 45.4978 18.7278 46.164 19.394C46.8301 20.0601 47.7297 20.4405 48.6717 20.4542C49.6136 20.4679 50.5239 20.114 51.2092 19.4675Z" fill="white"/>
</svg>
