<svg width="65" height="65" viewBox="0 0 65 65" fill="none" xmlns="http://www.w3.org/2000/svg">
<path d="M32.5 2.03125C15.6721 2.03125 2.03125 15.6731 2.03125 32.5C2.03125 49.3269 15.6721 62.9688 32.5 62.9688C49.3269 62.9677 62.9688 49.3269 62.9688 32.5C62.9688 15.6731 49.3269 2.03125 32.5 2.03125ZM32.502 60.9375C26.8948 60.9334 22.3458 56.4708 22.3458 47.5759V43.5185C22.3458 42.9792 22.4605 42.6562 23.1806 42.6562H23.921V46.2313C23.921 55.249 27.2919 59.2861 32.501 59.2891C37.7122 59.2891 41.0749 55.25 41.077 46.2292V42.6562H41.8214C42.5405 42.6562 42.6562 42.9782 42.6562 43.5185V47.5759C42.6583 56.4708 38.1093 60.9334 32.502 60.9375ZM24.7386 46.2313V42.6562H40.2594V46.2292C40.2594 54.7077 37.2176 58.3934 32.502 58.3934C27.7885 58.3903 24.7386 54.7046 24.7386 46.2313ZM41.1267 59.0393C42.7903 57.1137 44.0294 54.3979 44.4854 50.7325C47.9416 47.7791 49.7677 43.6363 49.7677 39.6094C49.7677 39.1087 49.3695 38.5938 48.6251 38.5938H16.378C15.6335 38.5938 15.2344 39.1087 15.2344 39.6094C15.2344 43.6363 17.0605 47.7791 20.5187 50.7325C20.9747 54.4152 22.2249 57.1391 23.8987 59.0657C12.6953 55.4308 4.57031 44.8998 4.57031 32.5C4.57031 17.0991 17.0991 4.57031 32.5 4.57031C47.8999 4.57031 60.4297 17.0991 60.4297 32.5C60.4297 44.8876 52.3128 55.3932 41.1267 59.0393Z" fill="white"/>
<path d="M19.2634 21.0834C19.2634 18.6266 24.5995 19.8087 26.3981 21.4764C27.4585 19.7356 26.9547 18.2691 26.9547 18.2691C26.9547 18.2691 25.4099 17.1773 23.136 16.7588L23.1309 14.4757C21.2642 13.9009 19.2583 14.4757 19.2583 14.4757V16.5973C19.2583 16.5973 15.5756 17.2748 15.5756 21.0844C15.5756 26.0183 23.1339 25.0646 23.1339 28.2435C23.1339 30.5612 18.0588 29.5953 15.5756 27.7469C14.8048 29.6136 15.5756 31.2244 15.5756 31.2244C16.7529 31.7262 17.99 32.074 19.2563 32.2593L19.2624 34.2621C19.2624 34.2621 21.2682 34.8735 23.1349 34.2621V32.1252C23.1349 32.1252 27.4219 31.8896 27.4219 28.2445C27.4219 23.5066 19.2634 23.9159 19.2634 21.0834Z" fill="white"/>
<path d="M41.6071 21.0834C41.6071 18.6266 46.9432 19.8087 48.7419 21.4764C49.8022 19.7356 49.2984 18.2691 49.2984 18.2691C49.2984 18.2691 47.7537 17.1773 45.4797 16.7588L45.4746 14.4757C43.6079 13.9009 41.602 14.4757 41.602 14.4757V16.5973C41.602 16.5973 37.9194 17.2748 37.9194 21.0844C37.9194 26.0183 45.4777 25.0646 45.4777 28.2435C45.4777 30.5612 40.4026 29.5953 37.9194 27.7469C37.1485 29.6136 37.9194 31.2244 37.9194 31.2244C39.0967 31.726 40.3338 32.0739 41.6 32.2593L41.6061 34.2621C41.6061 34.2621 43.612 34.8735 45.4787 34.2621V32.1252C45.4787 32.1252 49.7656 31.8896 49.7656 28.2445C49.7656 23.5066 41.6071 23.9159 41.6071 21.0834Z" fill="white"/>
<path d="M31.2081 55.4694L31.2112 56.7714C31.2112 56.7714 32.4634 57.1685 33.6314 56.7714V55.3831C33.6314 55.3831 36.3116 55.2287 36.3116 52.8602C36.3116 49.7819 31.2122 50.047 31.2122 48.2066C31.2122 46.6101 34.5485 47.3789 35.6718 48.4626C36.334 47.3322 36.0212 46.3775 36.0212 46.3775C36.0212 46.3775 35.0553 45.6676 33.6324 45.3954L33.6304 43.9106C32.4644 43.5368 31.2101 43.9106 31.2101 43.9106V45.2898C31.2101 45.2898 28.9087 45.7306 28.9087 48.2056C28.9087 51.413 33.6314 50.7934 33.6314 52.8592C33.6314 54.3654 30.4596 53.7377 28.9087 52.5363C28.6225 53.263 28.6225 54.0713 28.9087 54.7981C29.6417 55.1237 30.4151 55.3495 31.2081 55.4694Z" fill="white"/>
</svg>
