<svg width="40" height="40" viewBox="0 0 40 40" fill="none" xmlns="http://www.w3.org/2000/svg">
<path d="M30.1556 37.7778H9.8445C9.41694 37.7677 8.99555 37.6735 8.60442 37.5005C8.21329 37.3274 7.86008 37.0791 7.56498 36.7695C7.26987 36.46 7.03865 36.0953 6.88452 35.6964C6.73039 35.2974 6.65639 34.872 6.66672 34.4444V12.4778H8.88894V34.4444C8.87834 34.5802 8.89468 34.7168 8.93702 34.8462C8.97936 34.9756 9.04688 35.0954 9.13568 35.1987C9.22448 35.302 9.33282 35.3866 9.45447 35.4479C9.57611 35.5091 9.70866 35.5457 9.8445 35.5556H30.1556C30.2914 35.5457 30.424 35.5091 30.5456 35.4479C30.6673 35.3866 30.7756 35.302 30.8644 35.1987C30.9532 35.0954 31.0207 34.9756 31.0631 34.8462C31.1054 34.7168 31.1218 34.5802 31.1112 34.4444V12.4778H33.3334V34.4444C33.3437 34.872 33.2697 35.2974 33.1156 35.6964C32.9615 36.0953 32.7302 36.46 32.4351 36.7695C32.14 37.0791 31.7868 37.3274 31.3957 37.5005C31.0046 37.6735 30.5832 37.7677 30.1556 37.7778Z" fill="black"/>
<path d="M34.1999 9.99999H5.55545C5.26076 9.99999 4.97815 9.88293 4.76977 9.67456C4.5614 9.46618 4.44434 9.18357 4.44434 8.88888C4.44434 8.5942 4.5614 8.31158 4.76977 8.10321C4.97815 7.89483 5.26076 7.77777 5.55545 7.77777H34.1999C34.4946 7.77777 34.7772 7.89483 34.9856 8.10321C35.1939 8.31158 35.311 8.5942 35.311 8.88888C35.311 9.18357 35.1939 9.46618 34.9856 9.67456C34.7772 9.88293 34.4946 9.99999 34.1999 9.99999Z" fill="black"/>
<path d="M23.3333 14.4444H25.5555V31.1111H23.3333V14.4444Z" fill="black"/>
<path d="M14.4443 14.4444H16.6666V31.1111H14.4443V14.4444Z" fill="black"/>
<path d="M25.5554 6.51112H23.4443V4.44445H16.5554V6.51112H14.4443V4.44445C14.4436 3.87384 14.6624 3.32481 15.0554 2.91112C15.4485 2.49742 15.9855 2.25076 16.5554 2.22223H23.4443C24.0142 2.25076 24.5513 2.49742 24.9443 2.91112C25.3373 3.32481 25.5562 3.87384 25.5554 4.44445V6.51112Z" fill="black"/>
</svg>
